<svg xmlns="http://www.w3.org/2000/svg" width="413.948" height="159.699" viewBox="0 0 413.948 159.699">
  <g id="Group_155" data-name="Group 155" transform="translate(0 0)">
    <path id="Path_2421" data-name="Path 2421" d="M197.822,197.639l.663,14.6c.443,8.849-5.087,9.29-7.962,9.29h-5.309l-13.934.444c-2.656,0-10.4,0-9.954-8.848l.442-11.722V144.111c0-13.492,0-26.984.221-40.255v-1.328c0-1.77-.663-3.539-6.636-3.539H149.16c-10.4,0-10.175-6.413-10.175-16.588V74.216c0-4.2.443-11.945,10.4-11.945h9.289l23.446.665,16.147-.222c7.3,0,17.252-1.549,20.129,1.328,1.327,1.327,1.77,4.2,1.77,9.068V84.39c0,13.05-3.982,14.6-7.743,14.6h-7.3c-5.752,0-7.522,1.107-7.522,5.309Z" transform="translate(-138.985 -62.271)" fill="#fc3210"/>
    <path id="Path_2418" data-name="Path 2418" d="M236.455,62.271c11.724,0,13.049.665,13.049,16.812l-.663,105.063.443,24.331c.22,10.839-2.213,13.049-14.157,13.049h-7.741c-9.069,0-14.377.665-14.377-11.721V197.862c0-7.3.663-2.877.443-18.36-.222-12.606.22-71,.442-83.83V89.035c0-3.318-.442-6.636-.222-9.953.222-4.646-.22-1.992-.22-4.646V72.225c0-8.847,1.548-9.954,12.828-9.954Z" transform="translate(-95.313 -62.271)" fill="#fc3210"/>
    <path id="Path_2419" data-name="Path 2419" d="M255.779,105.4c0-7.079.221-14.156.221-21.235,0-4.424-.442-9.069-.442-13.492,0-5.973,1.327-8.406,11.281-8.406H287.41c6.193,0,9.953-.221,13.271,14.157L311.3,123.32h2.655L326.78,70.455c1.77-7.519,5.752-8.184,8.627-8.184h24.33c2.213,0,5.088.222,7.079,2.434,1.77,1.991,1.992,5.53,1.992,15.484,0,36.5-.886,24.994-.886,40.477l.443,67.461v9.734c.221,4.865.443,7.74.443,10.836,0,9.732-.886,12.828-6.858,12.828H342.043c-6.858,0-7.964-4.422-7.964-11.5V167.557c0-13.491-.442-15.7-.885-30.523h-3.1c-7.3,36.717-13.492,43.353-16.811,43.353-7.079,0-14.6-25.659-17.252-34.284l-2.877-9.069h-2.653v64.587c0,7.3.442,15.484-1.77,18.137-1.106,1.328-3.981,1.768-10.4,1.768H263.963c-3.1,0-8.184-.885-8.184-12.606Z" transform="translate(-57.724 -62.271)" fill="#fc3210"/>
    <path id="Path_2420" data-name="Path 2420" d="M361.735,78.64c0-5.53-1.328-11.06,2.875-14.377,1.77-1.327,4.866-1.992,13.493-1.992h42.471c9.289,0,11.5,2.654,11.72,11.5v3.317c0,2.434.225,4.645.225,7.079v3.1C432.294,97.882,427.206,98.1,421.68,98.1l-18.359-.222c-3.1,0-6.415.222-6.415,8.848v7.077c0,5.751,3.982,7.079,7.741,6.858L419.688,120c8.4-.443,11.5,1.106,11.5,14.819v6.416c0,5.308-.665,15.26-9.07,14.819l-13.049-.664c-12.607-.664-11.5,1.549-11.5,7.3v13.049c0,7.3.442,8.184,7.3,8.184l19.465-.221c6.858,0,9.733.442,9.733,16.81V208.7c0,13.051-7.52,12.828-11.723,12.828-9.511,0-18.8-.885-28.091-.885-7.966,0-15.928.885-24.114.885-8.4,0-10.395-5.529-10.174-9.29l.664-10.615c.221-4.645,1.106-1.77,1.106-15.7Z" transform="translate(-20.118 -62.271)" fill="#fc3210"/>
  </g>
</svg>
