<?xml version="1.0" encoding="utf-8"?>
<!-- Generator: Adobe Illustrator 24.0.0, SVG Export Plug-In . SVG Version: 6.00 Build 0)  -->
<svg version="1.1" id="Layer_1" xmlns="http://www.w3.org/2000/svg" xmlns:xlink="http://www.w3.org/1999/xlink" x="0px" y="0px"
	 viewBox="0 0 418.7 253.9" style="enable-background:new 0 0 418.7 253.9;" xml:space="preserve">
<style type="text/css">
	.st0{fill:#FFFFFF;}
</style>
<path id="Path_2749" class="st0" d="M418.7,13.7c0-7.8-5.3-13.7-14.6-13.7c-46.3,0-103.6,79.8-130.5,148.3
	c-2.8-1.7-8.2-4.4-13.6-4.4c-4.9,0.1-9.8,1.3-14.1,3.7c-7.7,2.8-21.3,11.8-30.5,17.8c-9,6-25.8,14.3-31,14.3c-3.3,0-4.2-2-4.2-4.6
	c0-1.2,0.8-3.4,2.1-6.3c14.6-0.1,26.1-12.7,26.1-22.6c0-2.1-1.5-4.9-4.6-4.9c-5.1,0-10.4,2.6-15.2,6.6l0,0
	c-7.3,4.5-16.4,8.4-24.1,8.4c-6.2,0-14.3-7.6-16.8-10c-2.3-2.4-5.5-3.8-8.9-3.9c-10.8,0-26.3,15.4-38.2,30.7
	c6.2-14.4,12-30.3,12-32.2c0-0.7-0.2-1.4-0.9-1.4c-6,0-27.4,48.6-27.4,54.7c-0.2,1.6,0.9,3,2.5,3.2c0.2,0,0.4,0,0.5,0
	c1.4,0,4.2-4.7,7.4-11.5c3.9-5.5,11.3-15.2,18.4-21.9c10.4-9.8,17.9-14.8,23.2-14.8c2.8,0,6.4,2.5,8.6,4.5c3.6,3.3,9.2,8.1,15,8.1
	c7.7,0,15.8-3.6,21.8-7.1c-5.2,6.5-8.8,14.3-8.8,20.4c0,4.9,2.5,8.8,8.2,8.8c8.8,0,25.7-8.4,38.2-16.8c5.9-3.9,11.3-7.8,15.4-10.8
	c-3.9,4.6-6.2,9.7-6.2,14.1c-0.1,3.3,2.6,6.1,6,6.2c0,0,0,0,0.1,0c5.1,0,17.7-6,34.2-15.9c-6.8,19.7-10.8,38-10.8,52.4
	c0,20.9,7.9,40.8,26.8,40.8c7.9,0,19.4-7.5,19.4-11.5c0-0.7-0.5-1.3-1.2-1.4c0,0,0,0,0,0c-1.3,0-1.5,2.4-5.4,4.9
	c-3.5,2.3-7.5,4.1-11.5,4.1c-15.6,0-20.5-16.4-20.5-35c0-15.8,5.7-37.8,15-61.7C336,117.9,418.7,50.8,418.7,13.7z M203,144
	c1.2,0,1.9,0.6,1.9,2.1c0,6.4-12.4,19.5-21.2,19.7C188.5,156.4,197.3,144,203,144z M403.5,4.8c5.8,0,9.9,3.7,9.9,9
	c0,32.8-76.6,96.9-129.9,132.8C310.6,81.1,363.5,4.8,403.5,4.8z M235.6,172.4c-1,0-1.4-0.5-1.4-1.4c0-7,20.3-22.5,28.5-22.5
	c3.5,0,7,1.7,9.4,3.2c-0.4,1-0.8,2-1.1,3C253.8,165.7,240.5,172.4,235.6,172.4z"/>
</svg>
