<svg xmlns="http://www.w3.org/2000/svg" width="91.504" height="180.014" viewBox="0 0 91.504 180.014">
  <path id="Path_2421" data-name="Path 2421" d="M205.306,214.859l.747,16.453c.5,9.975-5.734,10.472-8.975,10.472h-5.984l-15.706.5c-2.994,0-11.72,0-11.22-9.974l.5-13.214V154.521c0-15.208,0-30.417.249-45.376v-1.5c0-1.995-.747-3.99-7.48-3.99h-6.98c-11.718,0-11.469-7.229-11.469-18.7V75.735c0-4.736.5-13.464,11.72-13.464h10.47l26.429.75,18.2-.25c8.228,0,19.447-1.746,22.689,1.5,1.5,1.5,1.995,4.735,1.995,10.221V87.2c0,14.71-4.489,16.455-8.727,16.455h-8.227c-6.484,0-8.478,1.248-8.478,5.984Z" transform="translate(-138.985 -62.271)"/>
</svg>
