<svg xmlns="http://www.w3.org/2000/svg" width="264" height="264" viewBox="0 0 264 264">
  <path id="Subtraction_1" data-name="Subtraction 1" d="M125.5,249.5a132.969,132.969,0,0,1-26.6-2.682,131.274,131.274,0,0,1-47.2-19.862A132.387,132.387,0,0,1,3.873,168.88,131.336,131.336,0,0,1-3.818,144.1a133.285,133.285,0,0,1,0-53.205A131.276,131.276,0,0,1,16.044,43.7,132.385,132.385,0,0,1,74.12-4.127,131.333,131.333,0,0,1,98.9-11.818a133.283,133.283,0,0,1,53.205,0A131.277,131.277,0,0,1,199.3,8.044,132.385,132.385,0,0,1,247.127,66.12,131.333,131.333,0,0,1,254.818,90.9a133.283,133.283,0,0,1,0,53.205,131.275,131.275,0,0,1-19.862,47.2,132.386,132.386,0,0,1-58.076,47.824,131.334,131.334,0,0,1-24.778,7.691A132.971,132.971,0,0,1,125.5,249.5Zm11.925-73.314a13.7,13.7,0,1,0,13.7,13.7A13.748,13.748,0,0,0,137.425,176.186Zm-72.543,0A13.7,13.7,0,1,0,71.7,201.731v-6.979h-.482a7.958,7.958,0,1,1-1.274-11.033l2.281-5.371A13.657,13.657,0,0,0,64.882,176.186Zm117.846,21.677h9.7l2.134,5.022h6.26l-10.111-23.821-.3-.707a2.111,2.111,0,0,0-1.846-1.481h-5.314v.64c.977.519,1.085,1.819.3,3.66l-9.216,21.711h6.26l2.133-5.021Zm-29.074-21v.646c1.141.6,1.473,1.342,1.473,5.061v20.31h9.755c4.87,0,8.023-2.969,8.033-7.563a7.446,7.446,0,0,0-3.435-6.187l-.572-.384.3-.383.115-.147a6.893,6.893,0,0,0,1.451-4.2,7.322,7.322,0,0,0-7.448-7.144Zm-51.817,0v.646c1.139.6,1.469,1.728,1.472,5.014v20.357h5.778v-8.392h2.328c5.663,0,9.773-3.717,9.773-8.839,0-5.332-3.981-8.779-10.143-8.78Zm-19.189,21h9.7l2.133,5.022h6.261L90.627,179.064l-.3-.707a2.111,2.111,0,0,0-1.845-1.481H83.167v.64c.977.519,1.085,1.819.3,3.66l-9.216,21.711h6.261l2.133-5.021Zm81.38.236h-3.178v-6.089h3.178a3.057,3.057,0,0,1,3.049,3.045,2.832,2.832,0,0,1-3.049,3.046Zm-26.6-.269a7.95,7.95,0,1,1,8.047-7.947A8.018,8.018,0,0,1,137.425,197.83Zm53.036-5.032h-5.769l2.884-7.285,2.884,7.284Zm-100.079,0H84.613l2.884-7.285,2.884,7.284Zm21.145-3.368h-2.439v-7.552h2.439a4.259,4.259,0,0,1,2.826,1.029,3.608,3.608,0,0,1,1.228,2.747A3.836,3.836,0,0,1,111.526,189.43Zm51.189-2.138h-1.865v-5.585h1.865a2.793,2.793,0,0,1,0,5.585Z" transform="translate(6.5 14.5)" fill="#fff"/>
</svg>
