<svg id="Group_155" data-name="Group 155" xmlns="http://www.w3.org/2000/svg" width="734.697" height="283.443" viewBox="0 0 734.697 283.443">
  <path id="Path_2421" data-name="Path 2421" d="M243.413,302.53l1.176,25.907c.786,15.707-9.028,16.488-14.132,16.488h-9.423l-24.731.788c-4.714,0-18.453,0-17.667-15.7l.784-20.806V207.524c0-23.946,0-47.893.392-71.447V133.72c0-3.141-1.176-6.282-11.777-6.282H157.044c-18.451,0-18.059-11.383-18.059-29.442V83.471c0-7.458.786-21.2,18.453-21.2h16.486l41.614,1.181,28.658-.394c12.956,0,30.62-2.749,35.726,2.357,2.355,2.355,3.141,7.456,3.141,16.094V101.53c0,23.162-7.068,25.909-13.742,25.909H256.368c-10.209,0-13.35,1.965-13.35,9.423Z" transform="translate(-138.985 -62.271)"/>
  <path id="Path_2418" data-name="Path 2418" d="M254.623,62.271c20.808,0,23.16,1.181,23.16,29.838l-1.176,186.472.786,43.184c.39,19.237-3.927,23.16-25.127,23.16h-13.74c-16.1,0-25.517,1.181-25.517-20.8v-21.2c0-12.958,1.176-5.106.786-32.587-.394-22.374.39-126.016.784-148.786V109.774c0-5.89-.784-11.777-.394-17.665.394-8.246-.39-3.535-.39-8.246V79.938c0-15.7,2.747-17.667,22.768-17.667Z" transform="translate(-4.116 -62.271)"/>
  <path id="Path_2419" data-name="Path 2419" d="M255.95,138.826c0-12.563.392-25.125.392-37.688,0-7.852-.784-16.1-.784-23.946,0-10.6,2.355-14.92,20.021-14.92h36.51c10.991,0,17.665-.392,23.554,25.127l18.843,83.226H359.2L381.967,76.8c3.141-13.345,10.209-14.526,15.312-14.526h43.182c3.927,0,9.031.394,12.564,4.319,3.141,3.533,3.535,9.815,3.535,27.482,0,64.773-1.573,44.36-1.573,71.841l.786,119.734v17.277c.392,8.634.786,13.738.786,19.233,0,17.273-1.573,22.768-12.172,22.768H409.057c-12.172,0-14.134-7.848-14.134-20.411V249.138c0-23.944-.784-27.871-1.57-54.175h-5.5c-12.956,65.168-23.946,76.945-29.836,76.945-12.564,0-25.909-45.54-30.621-60.848l-5.106-16.1h-4.709V309.6c0,12.955.784,27.481-3.141,32.191-1.962,2.357-7.066,3.139-18.451,3.139H270.476c-5.5,0-14.526-1.571-14.526-22.374Z" transform="translate(95.568 -62.271)"/>
  <path id="Path_2420" data-name="Path 2420" d="M363.118,91.323c0-9.815-2.357-19.629,5.1-25.517,3.141-2.355,8.636-3.535,23.949-3.535H467.55c16.486,0,20.411,4.711,20.8,20.416v5.887c0,4.319.4,8.244.4,12.563v5.5c-.4,18.843-9.429,19.237-19.238,19.237l-32.585-.394c-5.5,0-11.385.394-11.385,15.7v12.561c0,10.207,7.068,12.564,13.74,12.171l26.7-1.178c14.914-.786,20.416,1.963,20.416,26.3v11.387c0,9.42-1.181,27.085-16.1,26.3l-23.16-1.178c-22.376-1.178-20.414,2.749-20.414,12.958v23.16c0,12.956.784,14.526,12.953,14.526l34.548-.392c12.172,0,17.275.784,17.275,29.836v14.524c0,23.164-13.348,22.768-20.806,22.768-16.881,0-33.371-1.571-49.858-1.571-14.138,0-28.27,1.571-42.8,1.571-14.916,0-18.449-9.813-18.057-16.488l1.178-18.841c.392-8.244,1.962-3.141,1.962-27.874Z" transform="translate(243.201 -62.271)"/>
</svg>
