<svg id="facebook" xmlns="http://www.w3.org/2000/svg" width="32" height="32" viewBox="0 0 32 32">
  <path id="Path_2396" data-name="Path 2396" d="M297.277,508.668q-3.2.521-6.422.961Q294.078,509.189,297.277,508.668Zm0,0" transform="translate(-276.14 -480)" />
  <path id="Path_2397" data-name="Path 2397" d="M302.4,507.793c-1.02.188-2.039.359-3.059.535C300.359,508.152,301.378,507.98,302.4,507.793Zm0,0" transform="translate(-282.317 -480)" />
  <path id="Path_2398" data-name="Path 2398" d="M285.137,510.34q-3.744.422-7.527.742Q281.389,510.766,285.137,510.34Zm0,0" transform="translate(-264.142 -480)" />
  <path id="Path_2399" data-name="Path 2399" d="M290.055,509.738c-1.2.16-2.406.309-3.609.449C287.649,510.047,288.856,509.9,290.055,509.738Zm0,0" transform="translate(-270.449 -480)" />
  <path id="Path_2400" data-name="Path 2400" d="M309.367,506.41c-.9.191-1.8.383-2.7.566C307.566,506.793,308.469,506.6,309.367,506.41Zm0,0" transform="translate(-289.023 -480)" />
  <path id="Path_2401" data-name="Path 2401" d="M326.664,502.113c-.727.207-1.453.4-2.18.605C325.211,502.515,325.937,502.32,326.664,502.113Zm0,0" transform="translate(-305.505 -478.115)" />
  <path id="Path_2402" data-name="Path 2402" d="M321.434,503.543c-.789.207-1.582.418-2.375.617Q320.248,503.861,321.434,503.543Zm0,0" transform="translate(-300.512 -478.407)" />
  <path id="Path_2403" data-name="Path 2403" d="M314.59,505.254c-.836.2-1.68.379-2.523.566C312.91,505.633,313.754,505.449,314.59,505.254Zm0,0" transform="translate(-294.011 -480)" />
  <path id="Path_2404" data-name="Path 2404" d="M277.527,511.09q-2.021.17-4.047.3Q275.507,511.26,277.527,511.09Zm0,0" transform="translate(-258.43 -480)" />
  <path id="Path_2405" data-name="Path 2405" d="M32,16A16,16,0,1,0,16,32c.094,0,.188,0,.281,0V19.541H12.844V15.535h3.438V12.587c0-3.419,2.087-5.28,5.137-5.28a28.3,28.3,0,0,1,3.082.157v3.573H22.4c-1.659,0-1.98.789-1.98,1.946v2.552h3.967l-.517,4.006h-3.45V31.382A16.009,16.009,0,0,0,32,16Zm0,0" />
  <path id="Path_2406" data-name="Path 2406" d="M272.914,511.43q-4,.258-8.023.4Q268.916,511.694,272.914,511.43Zm0,0" transform="translate(-252.288 -480)" />
  <path id="Path_2407" data-name="Path 2407" d="M264.754,511.836q-2.121.07-4.25.105Q262.631,511.906,264.754,511.836Zm0,0" transform="translate(-246.267 -480)" />
</svg>
