<?xml version="1.0" encoding="utf-8"?>
<!-- Generator: Adobe Illustrator 24.0.0, SVG Export Plug-In . SVG Version: 6.00 Build 0)  -->
<svg version="1.1" id="Layer_1" xmlns="http://www.w3.org/2000/svg" xmlns:xlink="http://www.w3.org/1999/xlink" x="0px" y="0px"
	 viewBox="0 0 264 96" style="enable-background:new 0 0 264 96;" xml:space="preserve">
<g id="panel">
	<path class="header__nav-logo-panel-path" d="M172,31.1c0-1.5-1.2-2.8-2.7-2.8h-1.9v5.6h1.9C170.7,33.8,171.9,32.6,172,31.1z"/>
	<path class="header__nav-logo-panel-path" d="M118,28.4h-2.4V36h2.4c0.1,0,0.1,0,0.2,0c2.1,0,3.9-1.7,3.9-3.8c0-1.1-0.4-2.1-1.2-2.7C120.1,28.7,119.1,28.4,118,28.4z"/>
	<polygon class="header__nav-logo-panel-path" points="94,32 91.1,39.3 96.9,39.3 96.9,39.3 	"/>
	<path class="header__nav-logo-panel-path" d="M144.1,28.4c-4.4-0.1-8,3.5-8,7.9c-0.1,4.4,3.5,8,7.9,8s8-3.5,8-7.9S148.5,28.5,144.1,28.4z"/>
	<polygon class="header__nav-logo-panel-path" points="194.1,32 191.2,39.3 197,39.3 197,39.3 	"/>
	<path class="header__nav-logo-panel-path" d="M170.5,38.5h-3.2v6.1h3.2l0,0c0.1,0,0.3,0,0.4,0c1.6-0.1,2.7-1.5,2.6-3C173.6,39.9,172.2,38.5,170.5,38.5z"/>
	<g>
		<path class="header__nav-logo-panel-path" d="M203.5,29.1c1.6,0,3-1.3,3-3c0-1.6-1.3-3-2.9-3c-1.6,0-3,1.3-3,2.9c0,0,0,0,0,0C200.6,27.8,201.9,29.1,203.5,29.1z
			 M202.2,24.2h1.7c0.7,0,1.4,0.2,1.4,1c0,0.8-0.6,1.1-1.2,1.1l1.2,1.8h-0.6l-1.1-1.8h-0.9v1.8h-0.5V24.2z"/>
		<path class="header__nav-logo-panel-path" d="M5,0c1.5,5.2,3.3,10.4,5.4,15.4C20.4,39,37,59.1,58.2,73.5c14.3,9.7,30.3,16.4,47.2,19.9c8.8,1.8,17.7,2.7,26.6,2.7
			c8.9,0,17.8-0.9,26.6-2.7c8.5-1.7,16.8-4.3,24.8-7.7c23.6-10,43.7-26.6,58.1-47.8C249.3,26.2,255.2,13.4,259,0H5z M66.6,42.7
			c3.5,2.7,8.5,2,11.2-1.4h0.5v7c-2.1,1.2-4.5,1.9-6.9,1.9c-7.6,0-13.7-6.2-13.6-13.8c0-7.6,6.2-13.7,13.8-13.6
			c2.6,0,5.2,0.8,7.3,2.2l-2.3,5.4c-0.1,0-0.1-0.1-0.2-0.1c-3.5-2.7-8.5-2-11.2,1.4C62.4,35,63.1,40,66.6,42.7z M101,49.4l-2.1-5
			h-9.7l-2.1,5h-6.3L90,27.7c0.8-1.8,0.7-3.1-0.3-3.7v-0.6H95c0.9,0.1,1.6,0.7,1.8,1.5l0.3,0.7l10.1,23.8H101z M117.9,41h-2.3v8.4
			h-5.8V29c0-3.3-0.3-4.4-1.5-5v-0.6h9.2c6.2,0,10.1,3.4,10.1,8.8C127.7,37.3,123.6,41,117.9,41z M143.9,50.1
			c-7.6,0-13.7-6.1-13.7-13.7c0-7.6,6.1-13.7,13.7-13.7c7.6,0,13.7,6.1,13.7,13.7C157.6,44,151.5,50.1,143.9,50.1z M203.5,22.7
			C203.5,22.7,203.5,22.7,203.5,22.7c1.9,0,3.5,1.6,3.5,3.5c0,1.9-1.6,3.5-3.5,3.5c-1.9,0-3.5-1.6-3.5-3.5
			C200,24.3,201.6,22.7,203.5,22.7z M171.4,49.4h-9.8V29.1c0-3.7-0.3-4.5-1.5-5.1v-0.6h9.7c4-0.1,7.4,3.1,7.4,7.1
			c0,1.5-0.5,3-1.5,4.2l-0.1,0.1l-0.3,0.4l0.6,0.4c2.1,1.4,3.4,3.7,3.4,6.2C179.4,46.4,176.3,49.4,171.4,49.4z M201.1,49.4l-2.1-5
			h-9.7l-2.1,5h-6.3l9.2-21.7c0.8-1.8,0.7-3.1-0.3-3.7v-0.6h5.3c0.9,0.1,1.6,0.7,1.8,1.5l0.3,0.7l10.1,23.8H201.1z"/>
		<path class="header__nav-logo-panel-path" d="M204.8,25.3c0-0.6-0.5-0.7-1-0.7h-1.1V26h1.2C204.2,26,204.8,25.9,204.8,25.3z"/>
	</g>
</g>
</svg>
