<svg id="Слой_1" data-name="Слой 1" xmlns="http://www.w3.org/2000/svg" viewBox="0 0 660 123"><path d="M265.54,540.32a60.37,60.37,0,1,1,2.31-103.09l-10.07,23.69A35.49,35.49,0,0,0,200,488.08c0,19.29,15.91,35,35.48,35a35.54,35.54,0,0,0,27.93-13.57h2.14Zm350.1-52.24a60.39,60.39,0,1,1-60.39-60.38A60.55,60.55,0,0,1,615.64,488.08Zm-24.91,0a35.47,35.47,0,0,0-70.94,0c0,19.29,15.92,35,35.46,35S590.71,507.37,590.73,488.08Zm-107-18.64c0,23-18.34,39-43.07,39H430.33v37H404.85V455.66c0-14.87-1.55-19.49-6.47-22.1v-2.85l40.59,0C466.49,430.75,483.68,446.5,483.68,469.44Zm-24.72,0c0-10.1-8.47-16.64-17.87-16.64H430.33v33.28h10.76C450.68,486.08,459,479.43,459,469.44Zm252.75,42.62c0,21.21-15.06,33.35-35.4,33.35h-43V455.86c0-16.58-1.53-19.68-6.5-22.3v-2.85l42.64,0c18.15,0,32.79,14.24,32.85,31.49a30.41,30.41,0,0,1-6.42,18.53l-.5.64-1.32,1.69,2.52,1.69A32.86,32.86,0,0,1,711.71,512.06Zm-53.19-35.4h8.23a12.31,12.31,0,0,0,0-24.62h-8.23v24.62ZM686,510.88a13.46,13.46,0,0,0-13.44-13.43h-14V524.3h14C680.22,524.3,686,519.72,686,510.88Zm148.75,34.53H807.12l-9.4-22.14H755l-9.4,22.14H718l40.63-95.72h0c3.09-7.32,3.34-13.67-1.36-16.14v-2.82h23.44c3.94,0,6.72,3.12,8.14,6.52h0l1.32,3.13Zm-45.67-44.47-12.71-32.13-12.72,32.13ZM393.54,545.41h-27.6l-9.4-22.14H313.78l-9.41,22.14h-27.6l40.63-95.72h0c3.1-7.32,3.35-13.67-1.34-16.14v-2.82h23.43c3.94,0,6.71,3.12,8.15,6.52h0L349,440.4Zm-45.66-44.47-12.73-32.13-12.72,32.13Z" transform="translate(-175.06 -426.33)"/><path d="M834.68,441.64a15.37,15.37,0,1,1-15.35-15.31A15.34,15.34,0,0,1,834.68,441.64Zm-28.41,0a13,13,0,1,0,13.06-13A13,13,0,0,0,806.27,441.64Zm7.3-8.61h7.55c2.94,0,6.13.94,6.13,4.61,0,3.47-2.61,4.69-5.43,4.69l5.14,7.92h-2.52l-4.86-7.92h-3.8v7.92h-2.21Zm2.21,7.67h5.07c1.58,0,4.19-.28,4.19-3.14,0-2.57-2.32-2.9-4.4-2.9h-4.86Z" transform="translate(-175.06 -426.33)"/></svg>