<svg xmlns="http://www.w3.org/2000/svg" width="150" height="27.458" viewBox="0 0 150 27.458">
  <path id="LOGO" d="M137.633,172.643a13.766,13.766,0,1,1,9.7-4.032A13.67,13.67,0,0,1,137.633,172.643Zm0-21.7a7.969,7.969,0,1,0,8.066,7.971A8.038,8.038,0,0,0,137.633,150.946Zm-72.718,21.7a13.729,13.729,0,1,1,7.365-25.29l-2.286,5.384a8.134,8.134,0,0,0-5.079-1.792A7.969,7.969,0,1,0,71.271,163.8h.484v7A13.734,13.734,0,0,1,64.915,172.643Zm115.993-.692h-6.275l9.238-21.765c.783-1.845.675-3.148-.3-3.668v-.641h5.327a2.118,2.118,0,0,1,1.85,1.483l.3.712,10.135,23.877h-6.275l-2.139-5.035h-9.721l-2.138,5.035Zm7-17.416h0l-2.891,7.3H190.8l-2.891-7.3ZM80.587,171.951H74.31l9.239-21.765c.783-1.845.675-3.148-.3-3.668v-.641h5.327a2.117,2.117,0,0,1,1.849,1.483l.3.712,10.137,23.877H94.584l-2.138-5.035H82.725l-2.138,5.035Zm7-17.416-2.891,7.3h5.783Zm77.573,17.416h-9.779V151.591c0-3.728-.333-4.467-1.477-5.074v-.648l9.7.007a7.34,7.34,0,0,1,7.466,7.161,6.911,6.911,0,0,1-1.454,4.213l-.115.146-.3.385.574.384a7.467,7.467,0,0,1,3.444,6.2,7.309,7.309,0,0,1-2.294,5.6A8.416,8.416,0,0,1,165.158,171.95Zm-4.042-10.9v6.1H164.3a2.837,2.837,0,0,0,3.057-3.051,3.065,3.065,0,0,0-3.057-3.053Zm0-10.327v5.6h1.869a2.8,2.8,0,0,0,0-5.6h-1.869ZM109.227,171.95h-5.792V151.543c0-3.293-.333-4.421-1.475-5.026v-.648l9.23.006a11.04,11.04,0,0,1,7.432,2.445,8.194,8.194,0,0,1,2.736,6.356,8.439,8.439,0,0,1-2.789,6.389,10.436,10.436,0,0,1-7.008,2.471h-2.334v8.412Zm0-21.059v7.57h2.445a3.795,3.795,0,1,0,0-7.57Z" transform="translate(-51.181 -145.185)" fill="#fff"/>
</svg>
