<svg xmlns="http://www.w3.org/2000/svg" width="185.74" height="34" viewBox="0 0 185.74 34">
  <path id="Path_2416" data-name="Path 2416" d="M253.223,159.476a17,17,0,1,1,.651-29.025l-2.83,6.667a9.86,9.86,0,1,0,1.58,13.694h.6Zm98.58-14.707a17.006,17.006,0,1,1-17-17A17.046,17.046,0,0,1,351.8,144.769Zm-7.017,0a9.988,9.988,0,1,0-9.988,9.864A9.952,9.952,0,0,0,344.786,144.769Zm-30.141-5.249c0,6.47-5.165,10.971-12.131,10.971h-2.89v10.417h-7.172V135.64c0-4.187-.438-5.488-1.826-6.224v-.8l11.43.008C309.808,128.623,314.645,133.062,314.645,139.52Zm-6.962,0a4.786,4.786,0,0,0-5.031-4.687h-3.028v9.374h3.028A4.773,4.773,0,0,0,307.683,139.52Zm71.168,12c-.011,5.971-4.239,9.388-9.97,9.388H356.772V135.7c0-4.67-.433-5.543-1.828-6.282v-.8l12.007.009a9.094,9.094,0,0,1,9.245,8.868,8.528,8.528,0,0,1-1.8,5.216l-.143.182-.375.476.711.477A9.243,9.243,0,0,1,378.851,151.521Zm-14.975-9.968h2.315a3.467,3.467,0,0,0,0-6.933h-2.315v6.933Zm7.73,9.634a3.789,3.789,0,0,0-3.784-3.78h-3.946v7.558h3.946A3.515,3.515,0,0,0,371.605,151.187Zm41.883,9.721h-7.771l-2.649-6.234H391.031l-2.647,6.234h-7.771l11.44-26.951v0c.873-2.06.939-3.845-.378-4.544v-.794h6.6a2.645,2.645,0,0,1,2.291,1.836v0l.374.879ZM400.63,148.388l-3.581-9.044-3.58,9.044ZM289.264,160.909h-7.772l-2.647-6.234H266.807l-2.647,6.234h-7.772l11.441-26.951v0c.874-2.06.94-3.845-.377-4.544v-.794h6.6a2.644,2.644,0,0,1,2.29,1.836v0l.374.879Zm-12.858-12.521-3.581-9.044-3.58,9.044Z" transform="translate(-227.748 -127.767)" />
</svg>
