<svg id="odnoklassniki" xmlns="http://www.w3.org/2000/svg" width="32" height="32" viewBox="0 0 32 32">
  <g id="Group_21" data-name="Group 21">
    <path id="Path_2412" data-name="Path 2412" d="M43.22,29.174a2.758,2.758,0,1,0-2.775-2.731A2.739,2.739,0,0,0,43.22,29.174Z" transform="translate(-27.205 -15.913)" fill="#848484"/>
    <path id="Path_2413" data-name="Path 2413" d="M16,0A16,16,0,1,0,32,16,16,16,0,0,0,16,0Zm.023,4.866a5.636,5.636,0,1,1-5.654,5.623A5.638,5.638,0,0,1,16.023,4.866Zm6.312,13.486a6.773,6.773,0,0,1-2.44,1.577,11.473,11.473,0,0,1-2.77.621c.143.155.21.231.3.32,1.282,1.289,2.57,2.571,3.848,3.864a1.273,1.273,0,0,1,.286,1.5,1.518,1.518,0,0,1-1.424.888,1.387,1.387,0,0,1-.9-.461c-.968-.974-1.954-1.93-2.9-2.922-.277-.289-.409-.234-.653.017-.973,1-1.963,1.989-2.957,2.97a1.24,1.24,0,0,1-1.5.268,1.514,1.514,0,0,1-.874-1.4,1.4,1.4,0,0,1,.469-.936q1.9-1.9,3.8-3.807c.084-.084.162-.174.284-.3A8.658,8.658,0,0,1,10.288,18.9a6.1,6.1,0,0,1-.487-.4,1.383,1.383,0,0,1,1.566-2.255,2.706,2.706,0,0,1,.382.226,7.567,7.567,0,0,0,8.388.076,2.275,2.275,0,0,1,.817-.422,1.282,1.282,0,0,1,1.469.586A1.244,1.244,0,0,1,22.335,18.351Z" fill="#848484"/>
  </g>
</svg>
