<svg xmlns="http://www.w3.org/2000/svg" width="41.138" height="179.52" viewBox="0 0 41.138 179.52">
  <path id="Path_2418" data-name="Path 2418" d="M239.438,62.271c13.215,0,14.709.75,14.709,18.95L253.4,199.649l.5,27.426c.248,12.218-2.494,14.709-15.958,14.709h-8.726c-10.223,0-16.206.75-16.206-13.212V215.109c0-8.229.747-3.243.5-20.7-.25-14.21.248-80.032.5-94.494V92.44c0-3.741-.5-7.48-.25-11.219.25-5.237-.248-2.245-.248-5.237V73.491c0-9.972,1.744-11.22,14.46-11.22Z" transform="translate(-213.009 -62.271)"/>
</svg>
