<svg xmlns="http://www.w3.org/2000/svg" width="127.656" height="179.513" viewBox="0 0 127.656 179.513">
  <path id="Path_2419" data-name="Path 2419" d="M255.807,110.891c0-7.979.249-15.957.249-23.936,0-4.987-.5-10.223-.5-15.208,0-6.733,1.5-9.476,12.716-9.476h23.188c6.98,0,11.219-.249,14.959,15.958l11.967,52.857h2.992L335.84,71.5c1.995-8.476,6.484-9.225,9.725-9.225H372.99c2.494,0,5.735.25,7.979,2.743,1.995,2.244,2.245,6.233,2.245,17.453,0,41.137-1,28.173-1,45.626l.5,76.043v10.973c.249,5.484.5,8.725.5,12.215,0,10.97-1,14.46-7.73,14.46H353.045c-7.73,0-8.977-4.984-8.977-12.963V180.949c0-15.207-.5-17.7-1-34.406h-3.49c-8.228,41.388-15.208,48.867-18.949,48.867-7.979,0-16.455-28.923-19.447-38.645l-3.243-10.223h-2.991v72.8c0,8.228.5,17.453-1.995,20.444-1.246,1.5-4.488,1.993-11.718,1.993H265.032c-3.49,0-9.225-1-9.225-14.21Z" transform="translate(-255.558 -62.271)"/>
</svg>
