<svg xmlns="http://www.w3.org/2000/svg" width="83.545" height="179.513" viewBox="0 0 83.545 179.513">
  <path id="Path_2420" data-name="Path 2420" d="M361.962,80.722c0-6.233-1.5-12.467,3.241-16.206,1.995-1.5,5.485-2.245,15.21-2.245h47.873c10.47,0,12.963,2.992,13.211,12.966v3.739c0,2.743.253,5.236.253,7.979v3.49c-.253,11.967-5.988,12.218-12.218,12.218l-20.695-.25c-3.49,0-7.231.25-7.231,9.974v7.978c0,6.482,4.489,7.979,8.726,7.73l16.954-.748c9.472-.5,12.966,1.246,12.966,16.7v7.232c0,5.983-.75,17.2-10.224,16.7l-14.709-.748c-14.211-.748-12.965,1.746-12.965,8.229v14.709c0,8.228.5,9.225,8.227,9.225l21.941-.249c7.73,0,10.971.5,10.971,18.949v9.224c0,14.712-8.477,14.46-13.214,14.46-10.721,0-21.194-1-31.665-1-8.979,0-17.954,1-27.181,1-9.473,0-11.717-6.232-11.468-10.472l.748-11.966c.249-5.236,1.246-1.995,1.246-17.7Z" transform="translate(-359.949 -62.271)"/>
</svg>
