<svg id="social" xmlns="http://www.w3.org/2000/svg" width="32" height="32" viewBox="0 0 32 32">
  <path id="Path_2411" data-name="Path 2411" d="M16,0A16,16,0,1,0,32,16,16,16,0,0,0,16,0Zm8.116,17.73a30.424,30.424,0,0,1,2.2,2.218,6.282,6.282,0,0,1,.789,1.137c.3.59.029,1.236-.5,1.271H23.333a2.533,2.533,0,0,1-2.088-.85c-.453-.461-.874-.954-1.311-1.431a3.065,3.065,0,0,0-.59-.525.684.684,0,0,0-1.091.265,3.434,3.434,0,0,0-.345,1.53c-.036.773-.269.975-1.044,1.011a8.394,8.394,0,0,1-4.691-1.009,10.354,10.354,0,0,1-3.156-2.954,39.819,39.819,0,0,1-4.155-7.407c-.262-.584-.07-.9.574-.908,1.07-.021,2.14-.018,3.209,0a.943.943,0,0,1,.891.667,19.917,19.917,0,0,0,2.175,4.031,3.446,3.446,0,0,0,.822.9.5.5,0,0,0,.848-.249,2.749,2.749,0,0,0,.189-.846,12.634,12.634,0,0,0-.052-2.963,1.236,1.236,0,0,0-1.053-1.131c-.313-.059-.267-.175-.115-.354a1.179,1.179,0,0,1,1.006-.5h3.7c.584.115.715.376.794.964l0,4.116c-.007.228.114.9.523,1.051.327.108.543-.155.739-.362A12.8,12.8,0,0,0,21.206,12.2c.25-.508.466-1.033.675-1.56a.8.8,0,0,1,.837-.574l3.566,0a1.855,1.855,0,0,1,.316.019c.6.1.766.361.58.948a8.886,8.886,0,0,1-1.417,2.458c-.6.824-1.231,1.618-1.821,2.446C23.4,16.693,23.443,17.074,24.116,17.73Z" fill="#848484"/>
</svg>
